<?xml version="1.0" encoding="utf-8"?>
<!-- Generator: Adobe Illustrator 22.0.1, SVG Export Plug-In . SVG Version: 6.00 Build 0)  -->
<svg version="1.1" id="Capa_1" xmlns="http://www.w3.org/2000/svg" xmlns:xlink="http://www.w3.org/1999/xlink" x="0px" y="0px"
	 viewBox="0 0 509.9 509.9" style="enable-background:new 0 0 509.9 509.9;" xml:space="preserve">
<style type="text/css">
	.st0{fill:#FFD15C;}
	.st1{fill:#ACB3BA;}
	.st2{fill:#CDD6E0;}
	.st3{fill:#54C0EB;}
	.st4{fill:#84DBFF;}
	.st5{fill:#F8B64C;}
	.st6{fill:#F1543F;}
	.st7{fill:#FF7058;}
</style>
<path class="st0" d="M190.6,298.8c-5.9-8.8-9.8-18.5-11.7-28.3h-157c2.9,52.7,24.4,101.4,57.5,139.4L190.6,298.8z"/>
<path class="st1" d="M178.9,240.3c1.9-10.7,5.9-20.5,11.7-28.3L79.4,99.9c-33.2,38-54.6,86.8-57.5,140.4H178.9z"/>
<path class="st2" d="M211.1,190.6c8.8-5.9,18.5-9.8,28.3-11.7v-157c-52.7,2.9-101.4,24.4-139.4,57.5L211.1,190.6z"/>
<path class="st3" d="M269.6,21.9v157c10.7,1.9,20.5,5.9,28.3,11.7L410,79.4C371.9,46.3,323.2,24.8,269.6,21.9z"/>
<path class="st4" d="M319.3,211.1c5.9,8.8,9.8,18.5,11.7,28.3h157c-2.9-52.7-24.4-101.4-57.5-139.4L319.3,211.1z"/>
<path class="st5" d="M240.3,331c-10.7-1.9-20.5-5.9-28.3-11.7L99.9,430.4c38,33.2,86.8,54.6,139.4,57.5V331H240.3z"/>
<path class="st6" d="M331,269.6c-1.9,10.7-5.9,20.5-11.7,28.3L430.4,410c33.2-38,54.6-86.8,57.5-139.4H331V269.6z"/>
<path class="st7" d="M298.8,319.3c-8.8,5.9-18.5,9.8-28.3,11.7v157c52.7-2.9,101.4-24.4,139.4-57.5L298.8,319.3z"/>
</svg>
